<svg width="16" height="16" viewBox="0 0 16 16" fill="none" xmlns="http://www.w3.org/2000/svg">
<g id="Iconly/Bold/Bag 2">
<g id="Bag 2">
<path id="Bag 2_2" fill-rule="evenodd" clip-rule="evenodd" d="M10.9456 4.31331H11.0822C12.8768 4.31331 14.3334 5.81331 14.3334 7.65331V11.3333C14.3334 13.1733 12.8768 14.6666 11.0822 14.6666H4.91788C3.12322 14.6666 1.66669 13.1733 1.66669 11.3333V7.65331C1.66669 5.81331 3.12322 4.31331 4.91788 4.31331H5.05443C5.06744 3.51331 5.37305 2.76665 5.92576 2.20665C6.48496 1.63998 7.20022 1.35331 8.00652 1.33331C9.61912 1.33331 10.9261 2.66665 10.9456 4.31331ZM6.60858 2.91998C6.24445 3.29331 6.04288 3.78665 6.02987 4.31331H9.97032C9.95082 3.21998 9.07949 2.33331 8.0066 2.33331C7.50591 2.33331 6.98572 2.53998 6.60858 2.91998ZM10.471 6.87998C10.7441 6.87998 10.9587 6.65331 10.9587 6.37998V5.60665C10.9587 5.33331 10.7441 5.10664 10.471 5.10664C10.2044 5.10664 9.98333 5.33331 9.98333 5.60665V6.37998C9.98333 6.65331 10.2044 6.87998 10.471 6.87998ZM5.95834 6.37998C5.95834 6.65331 5.74376 6.87998 5.47066 6.87998C5.20406 6.87998 4.98298 6.65331 4.98298 6.37998V5.60664C4.98298 5.33331 5.20406 5.10664 5.47066 5.10664C5.74376 5.10664 5.95834 5.33331 5.95834 5.60664V6.37998Z" fill="#9593A0"/>
</g>
</g>
</svg>
