<svg width="30" height="30" viewBox="0 0 30 30" fill="none" xmlns="http://www.w3.org/2000/svg">
<g id="Exodus Landing Page">
<g id="Exodus Landing Page_2">
<path id="Vector" d="M6.00361 24L7.22041 19.5288C6.41864 18.1544 5.9974 16.5912 6.00001 15C6.00001 10.0293 10.0293 6 15 6C19.9707 6 24 10.0293 24 15C24 19.9707 19.9707 24 15 24C13.4095 24.0026 11.847 23.5816 10.473 22.7805L6.00361 24ZM11.7519 10.7772C11.6357 10.7844 11.5221 10.815 11.418 10.8672C11.3204 10.9225 11.2313 10.9916 11.1534 11.0724C11.0454 11.1741 10.9842 11.2623 10.9185 11.3478C10.5859 11.7807 10.407 12.3121 10.41 12.858C10.4118 13.299 10.527 13.7283 10.707 14.1297C11.0751 14.9415 11.6808 15.801 12.4809 16.5975C12.6735 16.7892 12.8616 16.9818 13.0641 17.1609C14.0572 18.0352 15.2405 18.6657 16.5201 19.0023L17.0322 19.0806C17.1987 19.0896 17.3652 19.077 17.5326 19.0689C17.7947 19.0554 18.0507 18.9844 18.2823 18.861C18.4002 18.8003 18.5152 18.7342 18.627 18.663C18.627 18.663 18.6657 18.6378 18.7395 18.582C18.861 18.492 18.9357 18.4281 19.0365 18.3228C19.1112 18.2454 19.176 18.1545 19.2255 18.051C19.2957 17.9043 19.3659 17.6244 19.3947 17.3913C19.4163 17.2131 19.41 17.1159 19.4073 17.0556C19.4037 16.9593 19.3236 16.8594 19.2363 16.8171L18.7125 16.5822C18.7125 16.5822 17.9295 16.2411 17.4516 16.0233C17.4012 16.0013 17.3472 15.9888 17.2923 15.9864C17.2307 15.9801 17.1685 15.987 17.1098 16.0067C17.0512 16.0264 16.9974 16.0585 16.9521 16.1007V16.0989C16.9476 16.0989 16.8873 16.1502 16.2366 16.9386C16.1993 16.9888 16.1478 17.0267 16.0888 17.0475C16.0298 17.0684 15.966 17.0712 15.9054 17.0556C15.8468 17.0399 15.7893 17.0201 15.7335 16.9962C15.6219 16.9494 15.5832 16.9314 15.5067 16.8981L15.5022 16.8963C14.9873 16.6715 14.5106 16.3679 14.0892 15.9963C13.9758 15.8973 13.8705 15.7893 13.7625 15.6849C13.4084 15.3458 13.0999 14.9622 12.8445 14.5437L12.7914 14.4582C12.7533 14.4007 12.7224 14.3388 12.6996 14.2737C12.6654 14.1414 12.7545 14.0352 12.7545 14.0352C12.7545 14.0352 12.9732 13.7958 13.0749 13.6662C13.1596 13.5585 13.2386 13.4464 13.3116 13.3305C13.4178 13.1595 13.4511 12.984 13.3953 12.8481C13.1433 12.2325 12.8823 11.6196 12.6141 11.0112C12.561 10.8906 12.4035 10.8042 12.2604 10.7871C12.2118 10.7817 12.1632 10.7763 12.1146 10.7727C11.9937 10.7667 11.8726 10.7679 11.7519 10.7763V10.7772Z" fill="black"/>
<mask id="mask0_1_2518" style="mask-type:luminance" maskUnits="userSpaceOnUse" x="6" y="6" width="18" height="18">
<path id="Exodus Landing Page_3" d="M6.00361 24L7.22041 19.5288C6.41864 18.1544 5.9974 16.5912 6.00001 15C6.00001 10.0293 10.0293 6 15 6C19.9707 6 24 10.0293 24 15C24 19.9707 19.9707 24 15 24C13.4095 24.0026 11.847 23.5816 10.473 22.7805L6.00361 24ZM11.7519 10.7772C11.6357 10.7844 11.5221 10.815 11.418 10.8672C11.3204 10.9225 11.2313 10.9916 11.1534 11.0724C11.0454 11.1741 10.9842 11.2623 10.9185 11.3478C10.5859 11.7807 10.407 12.3121 10.41 12.858C10.4118 13.299 10.527 13.7283 10.707 14.1297C11.0751 14.9415 11.6808 15.801 12.4809 16.5975C12.6735 16.7892 12.8616 16.9818 13.0641 17.1609C14.0572 18.0352 15.2405 18.6657 16.5201 19.0023L17.0322 19.0806C17.1987 19.0896 17.3652 19.077 17.5326 19.0689C17.7947 19.0554 18.0507 18.9844 18.2823 18.861C18.4002 18.8003 18.5152 18.7342 18.627 18.663C18.627 18.663 18.6657 18.6378 18.7395 18.582C18.861 18.492 18.9357 18.4281 19.0365 18.3228C19.1112 18.2454 19.176 18.1545 19.2255 18.051C19.2957 17.9043 19.3659 17.6244 19.3947 17.3913C19.4163 17.2131 19.41 17.1159 19.4073 17.0556C19.4037 16.9593 19.3236 16.8594 19.2363 16.8171L18.7125 16.5822C18.7125 16.5822 17.9295 16.2411 17.4516 16.0233C17.4012 16.0013 17.3472 15.9888 17.2923 15.9864C17.2307 15.9801 17.1685 15.987 17.1098 16.0067C17.0512 16.0264 16.9974 16.0585 16.9521 16.1007V16.0989C16.9476 16.0989 16.8873 16.1502 16.2366 16.9386C16.1993 16.9888 16.1478 17.0267 16.0888 17.0475C16.0298 17.0684 15.966 17.0712 15.9054 17.0556C15.8468 17.0399 15.7893 17.0201 15.7335 16.9962C15.6219 16.9494 15.5832 16.9314 15.5067 16.8981L15.5022 16.8963C14.9873 16.6715 14.5106 16.3679 14.0892 15.9963C13.9758 15.8973 13.8705 15.7893 13.7625 15.6849C13.4084 15.3458 13.0999 14.9622 12.8445 14.5437L12.7914 14.4582C12.7533 14.4007 12.7224 14.3388 12.6996 14.2737C12.6654 14.1414 12.7545 14.0352 12.7545 14.0352C12.7545 14.0352 12.9732 13.7958 13.0749 13.6662C13.1596 13.5585 13.2386 13.4464 13.3116 13.3305C13.4178 13.1595 13.4511 12.984 13.3953 12.8481C13.1433 12.2325 12.8823 11.6196 12.6141 11.0112C12.561 10.8906 12.4035 10.8042 12.2604 10.7871C12.2118 10.7817 12.1632 10.7763 12.1146 10.7727C11.9937 10.7667 11.8726 10.7679 11.7519 10.7763V10.7772Z" fill="white"/>
</mask>
<g mask="url(#mask0_1_2518)">
<rect id="Exodus Landing Page_4" x="1" y="1" width="30" height="30" fill="url(#paint0_linear_1_2518)"/>
</g>
</g>
</g>
<defs>
<linearGradient id="paint0_linear_1_2518" x1="1" y1="16" x2="31" y2="16" gradientUnits="userSpaceOnUse">
<stop stop-color="#2C2D5B"/>
<stop offset="1" stop-color="#9FA1FF"/>
</linearGradient>
</defs>
</svg>
