<svg width="30" height="30" viewBox="0 0 30 30" fill="none" xmlns="http://www.w3.org/2000/svg">
<g id="Exodus Landing Page">
<g id="Exodus Landing Page_2">
<path id="Vector" d="M14.9977 11.9987C13.3451 11.9987 11.9965 13.3474 11.9965 15C11.9965 16.6526 13.3451 18.0013 14.9977 18.0013C16.6504 18.0013 17.999 16.6526 17.999 15C17.999 13.3474 16.6504 11.9987 14.9977 11.9987ZM23.9993 15C23.9993 13.7572 24.0106 12.5256 23.9408 11.285C23.871 9.84402 23.5423 8.56515 22.4886 7.51144C21.4326 6.45548 20.156 6.12901 18.715 6.05921C17.4722 5.98941 16.2406 6.00067 15 6.00067C13.7572 6.00067 12.5256 5.98941 11.285 6.05921C9.84402 6.12901 8.56515 6.45773 7.51144 7.51144C6.45548 8.5674 6.12901 9.84402 6.05921 11.285C5.98941 12.5278 6.00067 13.7594 6.00067 15C6.00067 16.2406 5.98941 17.4744 6.05921 18.715C6.12901 20.156 6.45773 21.4348 7.51144 22.4886C8.5674 23.5445 9.84402 23.871 11.285 23.9408C12.5278 24.0106 13.7594 23.9993 15 23.9993C16.2428 23.9993 17.4744 24.0106 18.715 23.9408C20.156 23.871 21.4349 23.5423 22.4886 22.4886C23.5445 21.4326 23.871 20.156 23.9408 18.715C24.0128 17.4744 23.9993 16.2428 23.9993 15ZM14.9977 19.6179C12.4423 19.6179 10.3799 17.5555 10.3799 15C10.3799 12.4445 12.4423 10.3821 14.9977 10.3821C17.5532 10.3821 19.6156 12.4445 19.6156 15C19.6156 17.5555 17.5532 19.6179 14.9977 19.6179ZM19.8047 11.2715C19.2081 11.2715 18.7263 10.7897 18.7263 10.193C18.7263 9.59635 19.2081 9.11452 19.8047 9.11452C20.4014 9.11452 20.8832 9.59635 20.8832 10.193C20.8834 10.3347 20.8556 10.475 20.8015 10.6059C20.7474 10.7369 20.6679 10.8558 20.5677 10.956C20.4676 11.0562 20.3486 11.1356 20.2177 11.1897C20.0867 11.2439 19.9464 11.2717 19.8047 11.2715Z" fill="black"/>
<mask id="mask0_1_2526" style="mask-type:luminance" maskUnits="userSpaceOnUse" x="6" y="6" width="19" height="18">
<path id="Exodus Landing Page_3" d="M14.9977 11.9987C13.3451 11.9987 11.9965 13.3474 11.9965 15C11.9965 16.6526 13.3451 18.0013 14.9977 18.0013C16.6504 18.0013 17.999 16.6526 17.999 15C17.999 13.3474 16.6504 11.9987 14.9977 11.9987ZM23.9993 15C23.9993 13.7572 24.0106 12.5256 23.9408 11.285C23.871 9.84402 23.5423 8.56515 22.4886 7.51144C21.4326 6.45548 20.156 6.12901 18.715 6.05921C17.4722 5.98941 16.2406 6.00067 15 6.00067C13.7572 6.00067 12.5256 5.98941 11.285 6.05921C9.84402 6.12901 8.56515 6.45773 7.51144 7.51144C6.45548 8.5674 6.12901 9.84402 6.05921 11.285C5.98941 12.5278 6.00067 13.7594 6.00067 15C6.00067 16.2406 5.98941 17.4744 6.05921 18.715C6.12901 20.156 6.45773 21.4348 7.51144 22.4886C8.5674 23.5445 9.84402 23.871 11.285 23.9408C12.5278 24.0106 13.7594 23.9993 15 23.9993C16.2428 23.9993 17.4744 24.0106 18.715 23.9408C20.156 23.871 21.4349 23.5423 22.4886 22.4886C23.5445 21.4326 23.871 20.156 23.9408 18.715C24.0128 17.4744 23.9993 16.2428 23.9993 15ZM14.9977 19.6179C12.4423 19.6179 10.3799 17.5555 10.3799 15C10.3799 12.4445 12.4423 10.3821 14.9977 10.3821C17.5532 10.3821 19.6156 12.4445 19.6156 15C19.6156 17.5555 17.5532 19.6179 14.9977 19.6179ZM19.8047 11.2715C19.2081 11.2715 18.7263 10.7897 18.7263 10.193C18.7263 9.59635 19.2081 9.11452 19.8047 9.11452C20.4014 9.11452 20.8832 9.59635 20.8832 10.193C20.8834 10.3347 20.8556 10.475 20.8015 10.6059C20.7474 10.7369 20.6679 10.8558 20.5677 10.956C20.4676 11.0562 20.3486 11.1356 20.2177 11.1897C20.0867 11.2439 19.9464 11.2717 19.8047 11.2715Z" fill="white"/>
</mask>
<g mask="url(#mask0_1_2526)">
<rect id="Exodus Landing Page_4" x="-1.97534" y="-2.97363" width="30" height="30" fill="url(#paint0_linear_1_2526)"/>
</g>
</g>
</g>
<defs>
<linearGradient id="paint0_linear_1_2526" x1="-1.97534" y1="12.0264" x2="28.0247" y2="12.0264" gradientUnits="userSpaceOnUse">
<stop stop-color="#2C2D5B"/>
<stop offset="1" stop-color="#9FA1FF"/>
</linearGradient>
</defs>
</svg>
