<svg width="30" height="30" viewBox="0 0 30 30" fill="none" xmlns="http://www.w3.org/2000/svg">
<g id="Exodus Landing Page">
<g id="Exodus Landing Page_2">
<path id="Exodus Landing Page_3" fill-rule="evenodd" clip-rule="evenodd" d="M16.0635 22.8197V14.6589H18.3162L18.6147 11.8466H16.0635L16.0673 10.4391C16.0673 9.70559 16.137 9.31257 17.1905 9.31257H18.5988V6.5H16.3457C13.6395 6.5 12.6869 7.86425 12.6869 10.1585V11.8469H11V14.6592H12.6869V22.8197H16.0635Z" fill="url(#paint0_linear_1_2504)"/>
<mask id="mask0_1_2504" style="mask-type:luminance" maskUnits="userSpaceOnUse" x="11" y="6" width="8" height="17">
<path id="Exodus Landing Page_4" fill-rule="evenodd" clip-rule="evenodd" d="M16.0635 22.8197V14.6589H18.3162L18.6147 11.8466H16.0635L16.0673 10.4391C16.0673 9.70559 16.137 9.31257 17.1905 9.31257H18.5988V6.5H16.3457C13.6395 6.5 12.6869 7.86425 12.6869 10.1585V11.8469H11V14.6592H12.6869V22.8197H16.0635Z" fill="white"/>
</mask>
<g mask="url(#mask0_1_2504)">
<rect id="Exodus Landing Page_5" width="30" height="30" fill="url(#paint1_linear_1_2504)"/>
</g>
</g>
</g>
<defs>
<linearGradient id="paint0_linear_1_2504" x1="11" y1="14.6598" x2="18.6147" y2="14.6598" gradientUnits="userSpaceOnUse">
<stop stop-color="#2C2D5B"/>
<stop offset="1" stop-color="#9FA1FF"/>
</linearGradient>
<linearGradient id="paint1_linear_1_2504" x1="0" y1="15" x2="30" y2="15" gradientUnits="userSpaceOnUse">
<stop stop-color="#2C2D5B"/>
<stop offset="1" stop-color="#9FA1FF"/>
</linearGradient>
</defs>
</svg>
