<svg width="36" height="36" viewBox="0 0 36 36" fill="none" xmlns="http://www.w3.org/2000/svg">
<g id="Frame 7030">
<rect width="36" height="36" rx="18" fill="#F4F4F4"/>
<g id="&#240;&#159;&#166;&#134; icon &#34;bulb&#34;">
<path id="Vector" d="M10.4998 18.0002H11.3331M17.9998 10.5002V11.3335M24.6665 18.0002H25.4998M12.6665 12.6668L13.2498 13.2502M23.3331 12.6668L22.7498 13.2502" stroke="#F67366" stroke-width="1.5" stroke-linecap="round" stroke-linejoin="round"/>
<path id="Vector_2" d="M15.5003 21.3332C14.8007 20.8085 14.2839 20.077 14.0231 19.2423C13.7624 18.4075 13.7709 17.5119 14.0474 16.6823C14.324 15.8526 14.8545 15.131 15.564 14.6197C16.2734 14.1084 17.1258 13.8332 18.0003 13.8332C18.8748 13.8332 19.7271 14.1084 20.4366 14.6197C21.146 15.131 21.6766 15.8526 21.9531 16.6823C22.2297 17.5119 22.2382 18.4075 21.9774 19.2423C21.7167 20.077 21.1999 20.8085 20.5003 21.3332C20.1749 21.6553 19.9299 22.0494 19.7852 22.4837C19.6404 22.9181 19.5999 23.3804 19.6669 23.8332C19.6669 24.2752 19.4913 24.6992 19.1788 25.0117C18.8662 25.3243 18.4423 25.4999 18.0003 25.4999C17.5582 25.4999 17.1343 25.3243 16.8218 25.0117C16.5092 24.6992 16.3336 24.2752 16.3336 23.8332C16.4006 23.3804 16.3601 22.9181 16.2154 22.4837C16.0706 22.0494 15.8256 21.6553 15.5003 21.3332Z" stroke="#F67366" stroke-width="1.5" stroke-linecap="round" stroke-linejoin="round"/>
<path id="Vector_3" d="M16.0837 22.1666H19.917" stroke="#F67366" stroke-width="1.5" stroke-linecap="round" stroke-linejoin="round"/>
</g>
</g>
</svg>
