<svg width="16" height="16" viewBox="0 0 16 16" fill="none" xmlns="http://www.w3.org/2000/svg">
<g id="Iconly/Bold/Location">
<g id="Location">
<path id="Location_2" fill-rule="evenodd" clip-rule="evenodd" d="M2.33333 6.87848C2.33333 3.81191 4.89592 1.33331 7.99563 1.33331C11.1041 1.33331 13.6667 3.81191 13.6667 6.87848C13.6667 8.42377 13.1047 9.8584 12.1797 11.0744C11.1592 12.4157 9.90144 13.5843 8.4857 14.5016C8.16167 14.7136 7.86925 14.7296 7.51363 14.5016C6.08982 13.5843 4.83206 12.4157 3.82033 11.0744C2.89466 9.8584 2.33333 8.42377 2.33333 6.87848ZM6.12945 7.05115C6.12945 8.07845 6.96774 8.88643 7.9956 8.88643C9.02413 8.88643 9.87048 8.07845 9.87048 7.05115C9.87048 6.03185 9.02413 5.18454 7.9956 5.18454C6.96774 5.18454 6.12945 6.03185 6.12945 7.05115Z" fill="#2C2D5B"/>
</g>
</g>
</svg>
