<svg width="19" height="19" viewBox="0 0 19 19" fill="none" xmlns="http://www.w3.org/2000/svg">
<g id="map-pin" clip-path="url(#clip0_15_118)">
<path id="Vector" d="M16.625 7.91667C16.625 13.4583 9.5 18.2083 9.5 18.2083C9.5 18.2083 2.375 13.4583 2.375 7.91667C2.375 6.027 3.12567 4.21473 4.46186 2.87854C5.79806 1.54234 7.61033 0.791672 9.5 0.791672C11.3897 0.791672 13.2019 1.54234 14.5381 2.87854C15.8743 4.21473 16.625 6.027 16.625 7.91667Z" stroke="#F67366" stroke-width="2" stroke-linecap="round" stroke-linejoin="round"/>
<path id="Vector_2" d="M9.5 10.2917C10.8117 10.2917 11.875 9.22835 11.875 7.91667C11.875 6.605 10.8117 5.54167 9.5 5.54167C8.18832 5.54167 7.125 6.605 7.125 7.91667C7.125 9.22835 8.18832 10.2917 9.5 10.2917Z" stroke="#F67366" stroke-width="2" stroke-linecap="round" stroke-linejoin="round"/>
</g>
<defs>
<clipPath id="clip0_15_118">
<rect width="19" height="19" fill="white"/>
</clipPath>
</defs>
</svg>
