<svg width="32" height="32" viewBox="0 0 32 32" fill="none" xmlns="http://www.w3.org/2000/svg">
<g id="mdi:truck-fast-outline">
<path id="Vector" d="M1 9.99999H14L15 12H2L1 9.99999ZM2.33333 14H15.3333L16.3333 16H3.33333L2.33333 14ZM24 24.6667C25.1067 24.6667 26 23.7733 26 22.6667C26 21.56 25.1067 20.6667 24 20.6667C22.8933 20.6667 22 21.56 22 22.6667C22 23.7733 22.8933 24.6667 24 24.6667ZM26 12.6667H22.6667V16H28.6133L26 12.6667ZM10.6667 24.6667C11.7733 24.6667 12.6667 23.7733 12.6667 22.6667C12.6667 21.56 11.7733 20.6667 10.6667 20.6667C9.56 20.6667 8.66667 21.56 8.66667 22.6667C8.66667 23.7733 9.56 24.6667 10.6667 24.6667ZM26.6667 10.6667L30.6667 16V22.6667H28C28 24.88 26.2133 26.6667 24 26.6667C21.7867 26.6667 20 24.88 20 22.6667H14.6667C14.6667 24.88 12.8667 26.6667 10.6667 26.6667C8.45333 26.6667 6.66667 24.88 6.66667 22.6667H4V18H6.66667V20H7.68C8.41333 19.1867 9.48 18.6667 10.6667 18.6667C11.8533 18.6667 12.92 19.1867 13.6533 20H20V7.99999H4C4 6.51999 5.18667 5.33333 6.66667 5.33333H22.6667V10.6667H26.6667Z" fill="#2C2D5B"/>
</g>
</svg>
