<svg width="29" height="29" viewBox="0 0 29 29" fill="none" xmlns="http://www.w3.org/2000/svg">
<g id="Iconly/Bold/Video">
<g id="Video">
<path id="Video_2" fill-rule="evenodd" clip-rule="evenodd" d="M7.78887 5.95001H14.3918C17.1529 5.95001 19.0807 7.85271 19.0807 10.5795V18.4206C19.0807 21.1473 17.1529 23.05 14.3918 23.05H7.78887C5.02776 23.05 3.1 21.1473 3.1 18.4206V10.5795C3.1 7.85271 5.02776 5.95001 7.78887 5.95001ZM23.5721 8.66205C24.0725 8.40743 24.6597 8.43405 25.1373 8.73497C25.615 9.03472 25.9 9.55554 25.9 10.125V18.8758C25.9 19.4463 25.615 19.966 25.1373 20.2657C24.8763 20.4289 24.5844 20.5123 24.2903 20.5123C24.0452 20.5123 23.8001 20.4544 23.5709 20.3375L21.8826 19.4857C21.2579 19.1686 20.8703 18.532 20.8703 17.8249V11.1747C20.8703 10.4664 21.2579 9.82983 21.8826 9.51503L23.5721 8.66205Z" fill="#2C2D5B"/>
</g>
</g>
</svg>
